<?xml version="1.0" encoding="UTF-8" standalone="no"?>
<!DOCTYPE svg PUBLIC "-//W3C//DTD SVG 1.1//EN"
 "http://www.w3.org/Graphics/SVG/1.1/DTD/svg11.dtd">
<!-- Generated by graphviz version 2.43.0 (0)
 -->
<!-- Title: Graphical Class Hierarchy Pages: 1 -->
<svg width="513pt" height="47pt"
 viewBox="0.00 0.00 513.00 47.00" xmlns="http://www.w3.org/2000/svg" xmlns:xlink="http://www.w3.org/1999/xlink">
<g id="graph0" class="graph" transform="scale(1 1) rotate(0) translate(4 43)">
<title>Graphical Class Hierarchy</title>
<polygon fill="white" stroke="transparent" points="-4,4 -4,-43 509,-43 509,4 -4,4"/>
<!-- Node5 -->
<g id="node1" class="node">
<title>Node5</title>
<g id="a_node1"><a xlink:title=" ">
<polygon fill="white" stroke="#bfbfbf" points="0,-0.5 0,-19.5 65,-19.5 65,-0.5 0,-0.5"/>
<text text-anchor="middle" x="32.5" y="-7.5" font-family="Helvetica,sans-Serif" font-size="10.00">SKEmitter</text>
</a>
</g>
</g>
<!-- Node0 -->
<g id="node2" class="node">
<title>Node0</title>
<g id="a_node2"><a xlink:href="class_s_k_output.html" target="_top" xlink:title="A specialized transform whose primary purpose is to output Signal K data on the Signal K network.">
<polygon fill="white" stroke="black" points="101,-19.5 101,-38.5 191,-38.5 191,-19.5 101,-19.5"/>
<text text-anchor="middle" x="146" y="-26.5" font-family="Helvetica,sans-Serif" font-size="10.00">SKOutput&lt; T &gt;</text>
</a>
</g>
</g>
<!-- Node5&#45;&gt;Node0 -->
<g id="edge1" class="edge">
<title>Node5&#45;&gt;Node0</title>
<path fill="none" stroke="midnightblue" d="M75.09,-17.09C83.48,-18.52 92.31,-20.02 100.78,-21.47"/>
<polygon fill="midnightblue" stroke="midnightblue" points="75.6,-13.62 65.15,-15.39 74.42,-20.52 75.6,-13.62"/>
</g>
<!-- Node4 -->
<g id="node4" class="node">
<title>Node4</title>
<g id="a_node4"><a xlink:href="class_s_k_output_3_01_attitude_01_4.html" target="_top" xlink:title="A template specialization of SKOutput:: for sending attitude values to the Signal K server.">
<polygon fill="white" stroke="black" points="382,-0.5 382,-19.5 505,-19.5 505,-0.5 382,-0.5"/>
<text text-anchor="middle" x="443.5" y="-7.5" font-family="Helvetica,sans-Serif" font-size="10.00">SKOutput&lt; Attitude &gt;</text>
</a>
</g>
</g>
<!-- Node5&#45;&gt;Node4 -->
<g id="edge3" class="edge">
<title>Node5&#45;&gt;Node4</title>
<path fill="none" stroke="midnightblue" d="M75.4,-10C148.08,-10 297.78,-10 381.83,-10"/>
<polygon fill="midnightblue" stroke="midnightblue" points="75.25,-6.5 65.25,-10 75.25,-13.5 75.25,-6.5"/>
</g>
<!-- Node1 -->
<g id="node3" class="node">
<title>Node1</title>
<g id="a_node3"><a xlink:href="class_s_k_output_numeric.html" target="_top" xlink:title=" ">
<polygon fill="white" stroke="#bfbfbf" points="227,-19.5 227,-38.5 346,-38.5 346,-19.5 227,-19.5"/>
<text text-anchor="middle" x="286.5" y="-26.5" font-family="Helvetica,sans-Serif" font-size="10.00">SymmetricTransform</text>
</a>
</g>
</g>
<!-- Node0&#45;&gt;Node1 -->
<g id="edge2" class="edge">
<title>Node0&#45;&gt;Node1</title>
<path fill="none" stroke="midnightblue" d="M201.24,-22.39C209.63,-22.23 218.32,-22.21 226.8,-22.32"/>
<polygon fill="midnightblue" stroke="midnightblue" points="201.11,-18.9 191.2,-22.66 201.29,-25.89 201.11,-18.9"/>
</g>
<!-- Node1&#45;&gt;Node0 -->
<g id="edge4" class="edge">
<title>Node1&#45;&gt;Node0</title>
<path fill="none" stroke="midnightblue" d="M216.67,-35.75C208.01,-35.75 199.34,-35.62 191.2,-35.34"/>
<polygon fill="midnightblue" stroke="midnightblue" points="216.83,-39.25 226.8,-35.68 216.78,-32.25 216.83,-39.25"/>
</g>
<!-- Node1&#45;&gt;Node4 -->
<g id="edge5" class="edge">
<title>Node1&#45;&gt;Node4</title>
<path fill="none" stroke="midnightblue" d="M356.06,-20.6C364.62,-19.55 373.32,-18.48 381.75,-17.45"/>
<polygon fill="midnightblue" stroke="midnightblue" points="355.6,-17.13 346.1,-21.82 356.45,-24.07 355.6,-17.13"/>
</g>
</g>
</svg>
