<?xml version="1.0" encoding="UTF-8" standalone="no"?>
<!DOCTYPE svg PUBLIC "-//W3C//DTD SVG 1.1//EN"
 "http://www.w3.org/Graphics/SVG/1.1/DTD/svg11.dtd">
<!-- Generated by graphviz version 2.43.0 (0)
 -->
<!-- Title: app Pages: 1 -->
<svg width="207pt" height="127pt"
 viewBox="0.00 0.00 207.00 126.50" xmlns="http://www.w3.org/2000/svg" xmlns:xlink="http://www.w3.org/1999/xlink">
<g id="graph0" class="graph" transform="scale(1 1) rotate(0) translate(4 122.5)">
<title>app</title>
<polygon fill="white" stroke="transparent" points="-4,4 -4,-122.5 203,-122.5 203,4 -4,4"/>
<!-- Node1 -->
<g id="node1" class="node">
<title>Node1</title>
<g id="a_node1"><a xlink:title=" ">
<polygon fill="#bfbfbf" stroke="black" points="164,-55 164,-74 199,-74 199,-55 164,-55"/>
<text text-anchor="middle" x="181.5" y="-62" font-family="Helvetica,sans-Serif" font-size="10.00">app</text>
</a>
</g>
</g>
<!-- Node2 -->
<g id="node2" class="node">
<title>Node2</title>
<g id="a_node2"><a xlink:href="class_attitude_values.html#a5e7ee49383d0984a2146b331d3f34b87" target="_top" xlink:title="starts periodic outputs of Attitude">
<polygon fill="white" stroke="black" points="0,-99 0,-118 128,-118 128,-99 0,-99"/>
<text text-anchor="middle" x="64" y="-106" font-family="Helvetica,sans-Serif" font-size="10.00">AttitudeValues::enable</text>
</a>
</g>
</g>
<!-- Node1&#45;&gt;Node2 -->
<g id="edge1" class="edge">
<title>Node1&#45;&gt;Node2</title>
<path fill="none" stroke="midnightblue" d="M154.79,-77.7C146.37,-81.76 136.89,-86.06 128,-89.5 119.05,-92.96 109.19,-96.19 99.98,-98.98"/>
<polygon fill="midnightblue" stroke="midnightblue" points="156.34,-80.83 163.76,-73.27 153.25,-74.56 156.34,-80.83"/>
</g>
<!-- Node3 -->
<g id="node3" class="node">
<title>Node3</title>
<g id="a_node3"><a xlink:href="class_orientation_values.html#af5a51df8710dc6c5b6b465974a9356ae" target="_top" xlink:title="starts periodic outputs of Attitude">
<polygon fill="white" stroke="black" points="9,-49.5 9,-79.5 119,-79.5 119,-49.5 9,-49.5"/>
<text text-anchor="start" x="17" y="-67.5" font-family="Helvetica,sans-Serif" font-size="10.00">OrientationValues::</text>
<text text-anchor="middle" x="64" y="-56.5" font-family="Helvetica,sans-Serif" font-size="10.00">enable</text>
</a>
</g>
</g>
<!-- Node1&#45;&gt;Node3 -->
<g id="edge2" class="edge">
<title>Node1&#45;&gt;Node3</title>
<path fill="none" stroke="midnightblue" d="M153.91,-64.5C143.52,-64.5 131.22,-64.5 119.12,-64.5"/>
<polygon fill="midnightblue" stroke="midnightblue" points="153.95,-68 163.95,-64.5 153.95,-61 153.95,-68"/>
</g>
<!-- Node4 -->
<g id="node4" class="node">
<title>Node4</title>
<g id="a_node4"><a xlink:href="class_orientation_sensor.html#abda8fb0864ac915c99e6d863cd6ca832" target="_top" xlink:title="Constructor sets up the I2C communications to the sensor and initializes the sensor fusion library.">
<polygon fill="white" stroke="black" points="9,-0.5 9,-30.5 119,-30.5 119,-0.5 9,-0.5"/>
<text text-anchor="start" x="17" y="-18.5" font-family="Helvetica,sans-Serif" font-size="10.00">OrientationSensor::</text>
<text text-anchor="middle" x="64" y="-7.5" font-family="Helvetica,sans-Serif" font-size="10.00">OrientationSensor</text>
</a>
</g>
</g>
<!-- Node1&#45;&gt;Node4 -->
<g id="edge3" class="edge">
<title>Node1&#45;&gt;Node4</title>
<path fill="none" stroke="midnightblue" d="M154.3,-52.2C145.93,-48.36 136.61,-44.17 128,-40.5 120.21,-37.18 111.81,-33.74 103.78,-30.53"/>
<polygon fill="midnightblue" stroke="midnightblue" points="153.03,-55.47 163.57,-56.5 155.97,-49.12 153.03,-55.47"/>
</g>
</g>
</svg>
