<?xml version="1.0" encoding="UTF-8" standalone="no"?>
<!DOCTYPE svg PUBLIC "-//W3C//DTD SVG 1.1//EN"
 "http://www.w3.org/Graphics/SVG/1.1/DTD/svg11.dtd">
<!-- Generated by graphviz version 2.43.0 (0)
 -->
<!-- Title: src/orientation_sensor.cpp Pages: 1 -->
<svg width="315pt" height="95pt"
 viewBox="0.00 0.00 314.50 95.00" xmlns="http://www.w3.org/2000/svg" xmlns:xlink="http://www.w3.org/1999/xlink">
<g id="graph0" class="graph" transform="scale(1 1) rotate(0) translate(4 91)">
<title>src/orientation_sensor.cpp</title>
<polygon fill="white" stroke="transparent" points="-4,4 -4,-91 310.5,-91 310.5,4 -4,4"/>
<!-- Node1 -->
<g id="node1" class="node">
<title>Node1</title>
<g id="a_node1"><a xlink:title="Orientation sensor interface to SensESP.">
<polygon fill="#bfbfbf" stroke="black" points="103.5,-67.5 103.5,-86.5 248.5,-86.5 248.5,-67.5 103.5,-67.5"/>
<text text-anchor="middle" x="176" y="-74.5" font-family="Helvetica,sans-Serif" font-size="10.00">src/orientation_sensor.cpp</text>
</a>
</g>
</g>
<!-- Node2 -->
<g id="node2" class="node">
<title>Node2</title>
<g id="a_node2"><a xlink:title=" ">
<polygon fill="white" stroke="#bfbfbf" points="0,-0.5 0,-30.5 110,-30.5 110,-0.5 0,-0.5"/>
<text text-anchor="start" x="8" y="-18.5" font-family="Helvetica,sans-Serif" font-size="10.00">sensors/orientation</text>
<text text-anchor="middle" x="55" y="-7.5" font-family="Helvetica,sans-Serif" font-size="10.00">_sensor.h</text>
</a>
</g>
</g>
<!-- Node1&#45;&gt;Node2 -->
<g id="edge1" class="edge">
<title>Node1&#45;&gt;Node2</title>
<path fill="none" stroke="midnightblue" d="M158.66,-67.48C141.51,-59.04 114.7,-45.86 92.64,-35.01"/>
<polygon fill="midnightblue" stroke="midnightblue" points="94.04,-31.79 83.52,-30.52 90.95,-38.08 94.04,-31.79"/>
</g>
<!-- Node3 -->
<g id="node3" class="node">
<title>Node3</title>
<g id="a_node3"><a xlink:title=" ">
<polygon fill="white" stroke="#bfbfbf" points="128.5,-6 128.5,-25 223.5,-25 223.5,-6 128.5,-6"/>
<text text-anchor="middle" x="176" y="-13" font-family="Helvetica,sans-Serif" font-size="10.00">RemoteDebug.h</text>
</a>
</g>
</g>
<!-- Node1&#45;&gt;Node3 -->
<g id="edge2" class="edge">
<title>Node1&#45;&gt;Node3</title>
<path fill="none" stroke="midnightblue" d="M176,-67.48C176,-59.08 176,-45.98 176,-35.16"/>
<polygon fill="midnightblue" stroke="midnightblue" points="179.5,-35.01 176,-25.01 172.5,-35.01 179.5,-35.01"/>
</g>
<!-- Node4 -->
<g id="node4" class="node">
<title>Node4</title>
<g id="a_node4"><a xlink:title=" ">
<polygon fill="white" stroke="#bfbfbf" points="241.5,-6 241.5,-25 306.5,-25 306.5,-6 241.5,-6"/>
<text text-anchor="middle" x="274" y="-13" font-family="Helvetica,sans-Serif" font-size="10.00">sensesp.h</text>
</a>
</g>
</g>
<!-- Node1&#45;&gt;Node4 -->
<g id="edge3" class="edge">
<title>Node1&#45;&gt;Node4</title>
<path fill="none" stroke="midnightblue" d="M190.04,-67.48C206.05,-57.75 232.45,-41.73 251.37,-30.24"/>
<polygon fill="midnightblue" stroke="midnightblue" points="253.25,-33.19 259.99,-25.01 249.62,-27.21 253.25,-33.19"/>
</g>
</g>
</svg>
